# xmcd
#
# Track frame offsets: 
#        150
#        22560
#        44707
#        58377
#        75110
#        100387
#        126830
#        147060
#        167577
#        186497
#
# Disc length: 2649 seconds
#
# Revision: 0
# Processed by: cddbd v1.5.2PL0 Copyright (c) Steve Scherf et al.
# Submitted via: ExactAudioCopy v1.0b3
#
DISCID=800a570a
DTITLE=คาราบาว - Welcome to Thailand
DYEAR=2010
DGENRE=Folk
TTITLE0=เวลคัม ทู ไทยแลนด์
TTITLE1=บิ๊กเสี่ยว
TTITLE2=สบายกว่า
TTITLE3=กระถางดอกไม้ให้คุณ
TTITLE4=เทวดาท่าจะแย่
TTITLE5=สังกะสี
TTITLE6=นีออน
TTITLE7=คนหนังเหนียว
TTITLE8=บาปบริสุทธิ์
TTITLE9=ถึกควายถุย ภาค 8
EXTD=
EXTT0=
EXTT1=
EXTT2=
EXTT3=
EXTT4=
EXTT5=
EXTT6=
EXTT7=
EXTT8=
EXTT9=
PLAYORDER=
